<?xml version="1.0" encoding="utf-8"?>
<!-- Generator: Adobe Illustrator 23.1.0, SVG Export Plug-In . SVG Version: 6.00 Build 0)  -->
<svg version="1.1" id="Layer_1" xmlns="http://www.w3.org/2000/svg" xmlns:xlink="http://www.w3.org/1999/xlink" x="0px" y="0px"
	 viewBox="0 0 1024 820.2" style="enable-background:new 0 0 1024 820.2;" xml:space="preserve">
<path d="M611.5,9.6c-221.7,0-403,178.8-403,400.5s181.4,400.5,403,400.5c105.8,0,201.5-40.3,272-105.8
	c-95.7,2.5-131-47.9-146.1-40.3l0,0c-37.8,17.6-80.6,27.7-125.9,27.7c-158.7,0-284.6-125.9-284.6-284.6S455.3,123,611.5,123
	s284.6,125.9,284.6,284.6c0,65.5-22.7,125.9-60.5,173.8c0,0,0,2.5-5,5c-37.8,42.8,47.9,108.3,52.9,113.3
	c80.6-73,128.5-178.8,128.5-294.7C1014.5,188.4,833.1,9.6,611.5,9.6z M12,168.3v642.3h118.4V9.6l0,0C77.5,133,12,140.6,12,168.3z"/>
</svg>
