<?xml version="1.0" encoding="utf-8"?>
<!-- Generator: Adobe Illustrator 24.0.0, SVG Export Plug-In . SVG Version: 6.00 Build 0)  -->
<svg version="1.1" id="Layer_1" xmlns="http://www.w3.org/2000/svg" xmlns:xlink="http://www.w3.org/1999/xlink" x="0px" y="0px"
	 viewBox="0 0 47 46.2" style="enable-background:new 0 0 47 46.2;" xml:space="preserve">
<path class="st0" d="M43.6,26.4c1.1,0,1.9-0.9,1.9-1.9c0-0.8-0.5-1.5-1.3-1.8l-0.1-0.1v-6.3l0.1-0.1c0.8-0.3,1.3-1,1.3-1.8
	c0-1.1-0.9-1.9-1.9-1.9c-0.2,0-0.4,0-0.6,0.1l-0.2,0.1l-3.4-4.3l0.1-0.1c0.2-0.3,0.3-0.7,0.3-1c0-1.1-0.9-1.9-1.9-1.9
	c-0.5,0-1,0.2-1.4,0.6l-0.1,0.1l-5.9-2.7V3.2V3.1c0-1.1-0.9-1.9-1.9-1.9c-0.8,0-1.5,0.5-1.8,1.3l-0.1,0.1h-8.5l-0.1-0.1
	c-0.3-0.8-1-1.3-1.8-1.3c-1.1,0-1.9,0.9-1.9,1.9c0,0.1,0,0.1,0,0.2v0.2l-3.8,1.9l-0.1-0.1C10.1,5,9.7,4.8,9.2,4.8
	c-1.1,0-1.9,0.9-1.9,1.9c0,0.4,0.1,0.7,0.3,1l0.1,0.1L4.2,12L4,11.9c-0.2-0.1-0.4-0.1-0.6-0.1c-1.1,0-1.9,0.9-1.9,1.9
	c0,0.8,0.5,1.5,1.3,1.8l0.1,0.1v4.9l-0.1,0.1c-0.8,0.3-1.3,1-1.3,1.8c0,1.1,0.9,1.9,1.9,1.9c0.7,0,1.3-0.4,1.7-1l0.1-0.1L9.4,24v0.2
	c0.2,0.9,0.9,1.6,1.9,1.6h0.1h0.2l1.5,3.7L13,29.6c-0.4,0.4-0.7,0.9-0.7,1.4c0,1.1,0.9,1.9,1.9,1.9c0.6,0,1.2-0.3,1.6-0.8l0.1-0.1
	l6.5,1.8V34c0,0.8,0.5,1.4,1.3,1.7l0.1,0.1v5.6l-0.1,0.1c-0.8,0.3-1.3,1-1.3,1.8c0,1.1,0.9,1.9,1.9,1.9c1.1,0,1.9-0.9,1.9-1.9
	c0-0.8-0.5-1.5-1.3-1.8l-0.1-0.1v-5.6l0.1-0.1c0.8-0.3,1.3-1,1.3-1.8c0-0.6-0.3-1.1-0.7-1.5l-0.1-0.1l1-2.9l6.8,2.3v0.2
	c0,0.8,0.5,1.5,1.3,1.8l0.1,0.1v7.8l-0.1,0.1c-0.8,0.3-1.3,1-1.3,1.8c0,1.1,0.9,1.9,1.9,1.9c1.1,0,1.9-0.9,1.9-1.9
	c0-0.8-0.5-1.5-1.3-1.8l-0.1-0.1v-7.8l0.1-0.1c0.8-0.3,1.3-1,1.3-1.8c0-0.2,0-0.4-0.1-0.7l-0.1-0.1l5.8-4.8l0.1,0.1
	C43,26.4,43.3,26.4,43.6,26.4z M44.6,24.5c0,0.5-0.4,0.9-0.9,0.9s-0.9-0.4-0.9-0.9s0.4-0.9,0.9-0.9C44.1,23.6,44.6,24,44.6,24.5z
	 M43.6,13.5c0.5,0,0.9,0.4,0.9,0.9s-0.4,0.9-0.9,0.9s-0.9-0.4-0.9-0.9C42.7,13.9,43.1,13.5,43.6,13.5z M37.9,6.3
	c0.5,0,0.9,0.4,0.9,0.9s-0.4,0.9-0.9,0.9S37,7.7,37,7.2S37.4,6.3,37.9,6.3z M36.8,8.9L37,9c0.5,0.3,1,0.3,1.5,0.1L38.7,9l3.4,4.3
	L42,13.5c-0.2,0.3-0.3,0.7-0.3,1c0,0.1,0,0.2,0,0.3V15l-5.4,2.9l-3.9-3.3l0.1-0.1c0.1-0.2,0.1-0.4,0.1-0.7s-0.1-0.5-0.1-0.7L32.4,13
	L36.8,8.9z M27,21.3l-0.1,0.1L23.5,18l5.8-3l0.1,0.1c0.6,0.6,1.5,0.7,2.3,0.2l0.1-0.1l3.6,3l-6.2,3.4l-0.1-0.1
	C28.5,21.1,27.7,21,27,21.3z M28.8,23.1c0,0.5-0.4,0.9-0.9,0.9S27,23.6,27,23.1s0.4-0.9,0.9-0.9C28.4,22.1,28.8,22.6,28.8,23.1z
	 M17.7,15h0.2l1.3,4.2l-6.4,3.3l-0.1-0.1c-0.2-0.2-0.5-0.4-0.8-0.5h-0.1l-1-8l5.3-0.3l0.1,0.1C16.3,14.5,17,14.9,17.7,15z M16.8,13
	c0-0.5,0.4-0.9,0.9-0.9s0.9,0.4,0.9,0.9s-0.3,1-0.8,1S16.8,13.6,16.8,13z M13.3,23.3l6.1-3.2l2,6.5l-8.3-2.8v-0.2c0-0.1,0-0.1,0-0.2
	v-0.2L13.3,23.3z M18.8,14.8l3,3L20,18.7L18.8,14.8z M19.4,14l0.1-0.1c0.1-0.3,0.2-0.5,0.2-0.8s-0.1-0.5-0.2-0.8l-0.1-0.1l3.7-3.4
	l5.8,4.3v0.2c-0.1,0.2-0.1,0.4-0.1,0.6c0,0.1,0,0.1,0,0.2v0.2l-0.1,0.1l-5.9,3.1L19.4,14z M29.8,13.7c0-0.5,0.4-0.9,0.9-0.9
	s0.9,0.4,0.9,0.9s-0.4,0.9-0.9,0.9C30.2,14.7,29.8,14.3,29.8,13.7z M28.5,2c0.5,0,0.9,0.4,0.9,0.9S29,3.8,28.5,3.8s-0.9-0.4-0.9-0.9
	S28,2,28.5,2z M27.5,4.6l0.1,0.1c0.8,0.4,1.7,0.2,2.3-0.4L30,4.2L36,7v0.2v0.1c0,0.2,0,0.5,0.1,0.7l0.1,0.1l-4.4,4L31.7,12
	c-0.6-0.4-1.4-0.3-2,0.1l-0.1,0.1L23.9,8L27.5,4.6z M26.7,3.5l0.1,0.2c0,0,0,0,0,0.1l0.1,0.1l-3.8,3.5l-5.3-3.9
	C17.8,3.5,26.7,3.5,26.7,3.5z M16.3,2c0.5,0,0.9,0.4,0.9,0.9s-0.4,0.9-0.9,0.9s-0.9-0.4-0.9-0.9S15.8,2,16.3,2z M11.1,6.6
	c0-0.1,0-0.1,0-0.2V6.2l3.8-1.9L15,4.4c0.6,0.6,1.7,0.7,2.4,0.2l0.1-0.1l4.8,3.6l-3.5,3.3l-0.1-0.1c-0.3-0.1-0.6-0.2-0.9-0.2
	c-0.9,0-1.6,0.6-1.8,1.4v0.2L10.6,13L9.9,8.4L10,8.3C10.7,7.9,11.1,7.3,11.1,6.6z M9.2,5.6c0.5,0,0.9,0.4,0.9,0.9S9.7,7.4,9.2,7.4
	S8.3,7,8.3,6.5C8.2,6,8.6,5.6,9.2,5.6z M8.4,8.3l0.2,0.1c0.1,0,0.1,0,0.2,0.1H9L9.5,13l-4.2,0.2L5.2,13c0-0.1-0.1-0.2-0.2-0.3v-0.1
	L8.4,8.3z M2.5,13.7c0-0.5,0.4-0.9,0.9-0.9s0.9,0.4,0.9,0.9s-0.4,0.9-0.9,0.9C2.9,14.7,2.5,14.3,2.5,13.7z M3.4,23.3
	c-0.5,0-0.9-0.4-0.9-0.9s0.4-0.9,0.9-0.9s0.9,0.4,0.9,0.9C4.4,22.9,3.9,23.3,3.4,23.3z M9.7,22.8L9.6,23l-4.2-0.8V22
	c-0.1-0.7-0.6-1.3-1.3-1.5L4,20.4v-4.9l0.1-0.1c0.6-0.2,1-0.7,1.2-1.3v-0.2l4.3-0.2l1,8L10.5,22C10.2,22.2,9.9,22.5,9.7,22.8z
	 M11.3,24.7c-0.5,0-0.9-0.4-0.9-0.9s0.4-0.9,0.9-0.9s0.9,0.4,0.9,0.9C12.3,24.3,11.8,24.7,11.3,24.7z M14.2,31.9
	c-0.5,0-0.9-0.4-0.9-0.9s0.4-0.9,0.9-0.9s0.9,0.4,0.9,0.9C15.1,31.5,14.7,31.9,14.2,31.9z M23.1,32.3c-0.2,0.1-0.3,0.3-0.4,0.4
	l-0.1,0.1L16.1,31v-0.2c-0.1-1-0.9-1.8-1.9-1.8h-0.1h-0.2l-1.5-3.7l0.1-0.1c0.1-0.1,0.2-0.2,0.2-0.3l0.1-0.1l8.9,3L23.1,32.3
	L23.1,32.3z M25.2,43.2c0,0.5-0.4,0.9-0.9,0.9s-0.9-0.4-0.9-0.9s0.4-0.9,0.9-0.9C24.8,42.2,25.2,42.7,25.2,43.2z M24.2,34.8
	c-0.5,0-0.9-0.4-0.9-0.9s0.4-0.9,0.9-0.9s0.9,0.4,0.9,0.9C25.2,34.4,24.8,34.8,24.2,34.8z M24.3,32.2l-1.2-4l2.3,0.8L24.3,32.2z
	 M25.7,28.1l-3-1l-2.3-7.4l2.2-1.1l3.6,3.6l-0.1,0.1c-0.1,0.3-0.2,0.5-0.2,0.8c0,0.6,0.3,1.1,0.7,1.5l0.1,0.1L25.7,28.1z M36,43.2
	c0,0.5-0.4,0.9-0.9,0.9s-0.9-0.4-0.9-0.9s0.4-0.9,0.9-0.9C35.5,42.2,36,42.7,36,43.2z M35,32.6c-0.5,0-0.9-0.4-0.9-0.9
	c0-0.5,0.4-0.9,0.9-0.9s0.9,0.4,0.9,0.9C36,32.2,35.5,32.6,35,32.6z M36.1,30.1L36,30c-0.8-0.5-1.9-0.3-2.5,0.5l-0.1,0.1l-6.8-2.3
	l1.1-3.4h0.2c0.7,0,1.4-0.4,1.7-1.1l0.1-0.1l12.1,1.1V25c0,0.1,0,0.1,0.1,0.2l0.1,0.2L36.1,30.1z M29.5,22.7l6.8-3.7l5.8,4.8
	L29.5,22.7z M37.2,18.5l5-2.7l0.1,0.1c0.2,0.2,0.4,0.3,0.6,0.4l0.1,0.1v6.3h0c-0.1,0-0.2,0.1-0.3,0.2L42.6,23L37.2,18.5z"/>
</svg>
