<svg version="1.1" id="Capa_1" xmlns="http://www.w3.org/2000/svg" xmlns:xlink="http://www.w3.org/1999/xlink" x="0px" y="0px"
	 viewBox="0 0 480.1 480.1" style="enable-background:new 0 0 480.1 480.1;" xml:space="preserve"><path d="M156.025 135.35a20.42 20.42 0 1 0 20.441 20.42 20.454 20.454 0 0 0-20.441-20.42zm0 28.84a8.42 8.42 0 1 1 8.441-8.42 8.44 8.44 0 0 1-8.441 8.42zM133.177 211a20.42 20.42 0 1 0 20.441 20.42A20.454 20.454 0 0 0 133.177 211zm0 28.84a8.42 8.42 0 1 1 8.441-8.42 8.44 8.44 0 0 1-8.441 8.422zM377.5 250.819a20.42 20.42 0 1 0-20.441-20.42 20.454 20.454 0 0 0 20.441 20.42zm0-28.84a8.42 8.42 0 1 1-8.441 8.42 8.44 8.44 0 0 1 8.441-8.42zM218.087 91.63a20.42 20.42 0 1 0 20.441 20.42 20.454 20.454 0 0 0-20.441-20.42zm0 28.84a8.42 8.42 0 1 1 8.441-8.42 8.44 8.44 0 0 1-8.441 8.42zm73.071 11.13a20.42 20.42 0 1 0-20.441-20.419 20.453 20.453 0 0 0 20.441 20.419zm0-28.839a8.42 8.42 0 1 1-8.441 8.42 8.44 8.44 0 0 1 8.441-8.416zm56.979 74.539a20.42 20.42 0 1 0-20.441-20.42 20.454 20.454 0 0 0 20.441 20.42zm0-28.84a8.42 8.42 0 1 1-8.441 8.42 8.44 8.44 0 0 1 8.441-8.417zm-138.4 230.215c-17.345-6.873-37.939-3.03-61.209 11.424a6 6 0 0 0-2.306 7.558c.243.54 6.115 13.335 20.774 23.273 12.648 8.574 26.561 11.559 39.8 11.559a111.585 111.585 0 0 0 33.057-5.462 6 6 0 0 0 4-7.267c-.334-1.26-8.499-30.931-34.116-41.085zm-49.87 18.66c17.689-9.9 32.935-12.431 45.38-7.531 14.117 5.56 21.735 19.633 25.015 27.5-43.499 11.335-63.647-10.039-70.395-19.969zM367.2 390.1c-23.269-14.455-43.862-18.3-61.208-11.424-25.617 10.154-33.783 39.826-34.117 41.085a6 6 0 0 0 4 7.267 111.558 111.558 0 0 0 33.057 5.462c13.242 0 27.158-2.986 39.8-11.559 14.659-9.938 20.531-22.733 20.774-23.273a6 6 0 0 0-2.306-7.558zM342 411c-14.922 10.115-33.924 12.23-56.551 6.306 3.246-7.847 10.807-21.861 24.967-27.473 12.446-4.934 27.7-2.416 45.4 7.478A53.3 53.3 0 0 1 342 411z"/><path d="M491.58 396.98c-4.155-3.162-9.089-4.594-15.1-4.39-12.814.442-20.8 5.61-30.261 14.387l-12.34 11.446c-.84-.22-1.685-.422-2.537-.6 14.583-14.629 25.991-32.793 33.9-54.013 9.82-26.339 14.241-57.477 13.16-92.551a75.33 75.33 0 0 0 2.642-13.979 6 6 0 0 0-11.949-1.109 62.017 62.017 0 0 1-18.717 39.013l5.042-42.435a193.926 193.926 0 0 0-110.2-205.332 208.583 208.583 0 0 0-87.331-19.4A201.074 201.074 0 0 0 56.187 256.3l5.134 37.359a62 62 0 0 1-18.416-38.719 6 6 0 0 0-11.949 1.108 75.269 75.269 0 0 0 2.644 13.981c-1.079 35.1 3.546 66.321 13.766 92.806 8.138 21.088 19.816 39.219 34.7 53.933a51.49 51.49 0 0 0-3.466.849l-12.815-11.872c-9.462-8.777-17.447-13.945-30.261-14.387-6-.2-10.949 1.228-15.1 4.39-7.863 5.983-11.629 15.133-10.073 24.477 1.407 8.449 6.839 15.409 13.839 17.732a15.879 15.879 0 0 0 5.014.817 18.329 18.329 0 0 0 12.658-5.52 6 6 0 1 0-8.312-8.655c-2.957 2.84-4.933 2.184-5.582 1.968-2.7-.895-5.127-4.391-5.78-8.313-.484-2.907-.413-8.455 5.5-12.956 1.369-1.042 3.328-2.089 7.424-1.947 9.174.316 14.779 4.017 22.517 11.195l8.709 8.066c-28 14.938-47.338 49.309-48.413 51.251a6 6 0 0 0 9.129 7.483c.235-.2 23.882-19.76 58.262-7.679 35.215 12.374 76.022.443 86.009-2.859a102.284 102.284 0 0 0 29.965 4.45 95.539 95.539 0 0 0 15.89-1.291c9.951-1.689 14.48-5.244 18.607-9.048a30.872 30.872 0 0 1 19.677-8.055h4.8a30.872 30.872 0 0 1 19.677 8.055c4.127 3.8 8.656 7.359 18.607 9.048a102.012 102.012 0 0 0 41.852-2.018c9.481 3.162 50.731 15.443 86.285 2.95 34.117-11.987 57.309 6.885 58.262 7.679a6 6 0 0 0 9.188-7.373c-1.037-1.969-19.843-37.117-47.878-51.9l8.118-7.53c7.735-7.174 13.34-10.875 22.514-11.191 4.108-.144 6.055.9 7.425 1.948 5.915 4.5 5.986 10.048 5.5 12.955-.653 3.923-3.084 7.419-5.78 8.313-.649.214-2.624.872-5.582-1.968a6 6 0 1 0-8.312 8.655 18.329 18.329 0 0 0 12.658 5.52 15.852 15.852 0 0 0 5.014-.818c7-2.321 12.432-9.281 13.839-17.73 1.559-9.346-2.207-18.496-10.071-24.479zm-25.339-101.524c-1.127 23.646-5.161 44.987-12.061 63.672-7.317 19.814-17.862 36.717-31.341 50.237a117.15 117.15 0 0 1-30.239 21.977c15.818-30.534 12.966-68.752 11.916-78.418 2.476-3.71 9.736-12.756 20.574-10.762 4.248.781 6.906 3.2 7.9 7.187 1.141 4.58-.359 10.232-3.344 12.6-1.068.846-2.675 1.621-5.648.095a6 6 0 1 0-5.481 10.675 18.727 18.727 0 0 0 8.56 2.19 15.95 15.95 0 0 0 10.024-3.556c6.647-5.27 9.815-15.743 7.533-24.9-2.139-8.587-8.471-14.45-17.371-16.088-9.2-1.693-18.1 1.022-25.725 7.853a43.613 43.613 0 0 0-7.763 9.239c-1.695.833-9.264 3.54-25.592-3.029a147.077 147.077 0 0 1 37.317-18.793 163.262 163.262 0 0 1 17.653-4.53c7.7-1.631 14.342-3.04 22.485-7.466a66.9 66.9 0 0 0 20.603-18.183zm-113.153-32.58a6 6 0 0 0-11.139 4.462 101.486 101.486 0 0 1 2.629 7.365c-6.822 13.913-17.124 18.921-27.1 23.766-10.537 5.115-21.354 10.367-25.6 24.806a36.44 36.44 0 0 0-2.362-4.133c9.158-48.439 31.514-86.621 66.494-113.5a160.2 160.2 0 0 1 46.041-24.856 152.427 152.427 0 0 1 8.686 61.465 89.937 89.937 0 0 1-1.132 9.526 30.133 30.133 0 0 0-1.638-1.228 6 6 0 1 0-6.775 9.9c1.666 1.139 7.786 6.338 7.288 10.957-.412 3.825-5.788 8.105-14.75 11.74-20.379 8.267-31.833 24.165-38.147 37.611 8.634-20.941 3.509-42.892-2.495-57.881zm1.1 60.994a95.142 95.142 0 0 0-4.319 12.492q-1.494-.545-2.986-1.036a57.1 57.1 0 0 0 7.308-11.456zm-20.553 8.081a110.687 110.687 0 0 0-31.142-1.128c1.931-12.671 9.511-16.362 20.217-21.559 8.013-3.889 17.423-8.461 25.27-17.833 1.987 23.476-9.646 36.341-14.342 40.52zM197.8 298.089c-12.044-5.484-23.446-10.684-30.361-24.606a96.22 96.22 0 0 1 2.616-7.377 6 6 0 0 0-11.139-4.461c-11.344 28.316-6.61 49.04-.641 61.439a61.576 61.576 0 0 0 8.4 12.978c-1.165.412-2.329.84-3.494 1.3-3.821-13.849-15.225-43.405-44.907-55.445-8.946-3.629-14.322-7.9-14.748-11.722-.5-4.475 5.25-9.56 7.286-10.975a6 6 0 0 0-6.5-10.076c-.09-.6-.187-1.2-.244-1.8a152.864 152.864 0 0 1 8.07-65.5 168.954 168.954 0 0 1 45.633 26.587c22.883 18.489 51.75 51.577 64.444 106.2-6.248-8.237-15.67-12.557-24.415-16.542zm18.938 33.269a110.41 110.41 0 0 0-37.019 1.076c-4.966-4.482-17.407-18.258-15.545-42.387 8.572 9.816 19.427 14.762 28.653 18.964 12.615 5.746 21.573 9.833 23.907 22.347zm-67.167 2.952c-10.51-7.652-24.191-16.405-39.366-21.323-3.2-1.038-6.1-1.856-8.8-2.547a88.05 88.05 0 0 0-.568-.9c-2.982-4.74-8.527-13.54-7.381-21.168a38.258 38.258 0 0 1 1.97-7.672q5.444 7.1 18.336 12.34c20.868 8.465 31.138 28.26 35.805 41.27zm15.743-135.21a180.355 180.355 0 0 0-48.736-28.415 153.146 153.146 0 0 1 42.36-55.972c14.144 14.916 64.388 75.6 77.273 195.988a36.62 36.62 0 0 0-2.155 1.859c-13.37-58.297-44.265-93.68-68.742-113.46zm3.225-91.726a154.131 154.131 0 0 1 80.068-27.845l2.45 224.017c-1.179.263-2.33.6-3.463.97-8.43-72.087-30.03-122.425-47-152.315-13.094-23.052-25.323-37.631-32.055-44.823zm90.475 207.29a24.521 24.521 0 0 1 24.029 19.716 111.619 111.619 0 0 0-25.51 9.992 108.568 108.568 0 0 0-22.69-9.2 24.517 24.517 0 0 1 24.171-20.504zm1.591-235.336a152.455 152.455 0 0 1 82.1 25.769c-8.05 5.241-20.271 15.3-32.632 33.42-26.139 38.314-41.016 93.736-44.262 164.805q-1.365-.258-2.764-.412zm18.776 229.579q-.856-.577-1.746-1.106c1.945-49.036 10.862-115.517 41.627-161.447 14.15-21.125 28-30.312 33.934-33.547a156.558 156.558 0 0 1 16.771 15.6 154.446 154.446 0 0 1 27.533 41.225 171.242 171.242 0 0 0-48.331 26.131c-24.875 18.985-56.469 53.782-69.788 113.148zm118.857-14.639q12.865-5.219 18.333-12.335a38.379 38.379 0 0 1 1.973 7.667c1.146 7.625-4.4 16.432-7.379 21.163-.2.323-.389.618-.568.905a146.399 146.399 0 0 0-8.8 2.547 157.668 157.668 0 0 0-38.246 18.855c4.475-12.31 14.294-30.525 34.687-38.798zM113.552 104.07a189.16 189.16 0 0 1 144.219-64.057 196.7 196.7 0 0 1 82.364 18.274 183.407 183.407 0 0 1 62.37 47.467 181.533 181.533 0 0 1 41.037 145.283c-.01.066-.019.132-.026.2l-6.324 53.223a53.555 53.555 0 0 1-10.7 3.619c2.781-5.778 5.029-12.87 3.918-20.258a48.892 48.892 0 0 0-10.96-24.436l.993-4.478a103.641 103.641 0 0 0 2.267-15.9 165.688 165.688 0 0 0-163.6-175.708A165.68 165.68 0 0 0 92.125 248.5a47.9 47.9 0 0 0 2.383 10.914 25.1 25.1 0 0 0-.907 1.649 47.778 47.778 0 0 0-12.012 25.53c-1.111 7.388 1.137 14.48 3.918 20.258a53.525 53.525 0 0 1-10.762-3.651l-6.669-48.531a188.639 188.639 0 0 1 45.476-150.599zM58.385 358.059C51.21 339.3 47 317.921 45.8 294.274a66.865 66.865 0 0 0 20.565 18.132c8.143 4.427 14.789 5.836 22.485 7.468a162.994 162.994 0 0 1 17.65 4.526c14.693 4.762 27.861 13.517 38.106 21.149-14.791 5.318-21.425 2.535-22.919 1.7-3.224-4.269-17.7-21.665-36.953-18.126-8.9 1.638-15.233 7.5-17.372 16.09-2.281 9.159.887 19.633 7.535 24.9a15.945 15.945 0 0 0 10.023 3.556 18.748 18.748 0 0 0 8.561-2.191A6 6 0 0 0 88 360.81c-2.974 1.526-4.581.751-5.648-.1-2.985-2.366-4.485-8.018-3.344-12.6.993-3.989 3.651-6.407 7.9-7.189 11.1-2.04 20.826 8.21 24.261 12.373-1.08 10.253-3.677 48.005 12.031 78.187a123.886 123.886 0 0 1-32.21-22.761C76.974 395.026 66 377.979 58.385 358.059zm30.907 104.287c-19.456-6.837-36-5.141-48.125-1.386a146.986 146.986 0 0 1 8.333-9.736c10.926-11.653 27.53-24.955 45.313-23.3 18.494 14.27 35.274 19.682 40.836 21.191a77.936 77.936 0 0 0 17.977 14.074c-16.133 3.633-41.926 7.031-64.334-.843zm211.265-.21c-6.761-1.148-9.331-3.136-12.482-6.041a42.893 42.893 0 0 0-27.466-11.227h-5.491a42.887 42.887 0 0 0-27.466 11.232c-3.15 2.9-5.721 4.892-12.482 6.04-22.3 3.787-53.174-1.683-71.885-22.428-21.778-24.145-21.791-63.183-20.685-79.569a30.932 30.932 0 0 0 3.228.46c9.581.866 21.319-2.159 34.887-8.985 21.352-10.744 42.855-10.284 57.136-8.007 17.592 2.807 30.805 9.157 35.839 12.467a6.993 6.993 0 0 0 7.679 0c7.769-5.1 38.813-18.862 72.411-11.855h.028a86.274 86.274 0 0 1 21.2 7.388c13.568 6.826 25.308 9.851 34.887 8.985a30.932 30.932 0 0 0 3.228-.46c1.106 16.386 1.093 55.424-20.684 79.569-18.708 20.749-49.584 26.216-71.882 22.431zm170.976.276c-12.179-3.9-29-5.8-48.825 1.166-21.873 7.685-47.059 4.6-63.266 1.062a78.432 78.432 0 0 0 20.618-15.519c5.37-1.451 21.152-6.558 38.64-20.12 21.64-2.055 41.022 17.699 52.833 33.411z"/></svg>