<?xml version="1.0" encoding="utf-8"?>
<!-- Generator: Adobe Illustrator 24.0.0, SVG Export Plug-In . SVG Version: 6.00 Build 0)  -->
<svg version="1.1" id="Layer_1" xmlns="http://www.w3.org/2000/svg" xmlns:xlink="http://www.w3.org/1999/xlink" x="0px" y="0px"
	 viewBox="0 0 51.5 50.3" style="enable-background:new 0 0 51.5 50.3;" xml:space="preserve">
<g class="st0">
	<path class="st1" d="M25.7,1.8C12.8,1.8,2.4,12.3,2.4,25.2s10.5,23.4,23.4,23.4s23.4-10.5,23.4-23.4C49.1,12.3,38.6,1.8,25.7,1.8z
		 M25.7,47.3c-12.2,0-22.1-9.9-22.1-22.1C3.6,13,13.5,3,25.7,3s22.2,10,22.2,22.2S37.9,47.3,25.7,47.3z"/>
	<path class="st1" d="M25.7,5.7C15,5.7,6.3,14.5,6.3,25.2S15,44.6,25.7,44.6s19.4-8.7,19.4-19.4C45.2,14.5,36.4,5.7,25.7,5.7z
		 M25.7,43.4c-10,0-18.2-8.2-18.2-18.2C7.5,15.1,15.7,7,25.7,7s18.2,8.2,18.2,18.2S35.8,43.4,25.7,43.4z"/>
	<path class="st1" d="M15,36.7l14-8c0,0,0.1-0.1,0.2-0.2l8-14c0.1-0.2,0.1-0.5-0.1-0.7c-0.2-0.2-0.5-0.2-0.7-0.1l-14,8h-0.1
		c0,0-0.1,0.1-0.2,0.2l-8,14c-0.1,0.2-0.1,0.5,0.1,0.7C14.5,36.7,14.8,36.8,15,36.7z M35.2,15.7l-6.6,11.6l-5-5L35.2,15.7z
		 M22.8,23.1l5,5l-11.6,6.6L22.8,23.1z"/>
	<g>
		<path class="st1" d="M13.2,24.4H10c-0.4,0-0.8,0.4-0.8,0.8S9.6,26,10,26h3.1c0.4,0,0.8-0.4,0.8-0.8C14,24.7,13.6,24.4,13.2,24.4z"
			/>
	</g>
	<g>
		<path class="st1" d="M41.4,24.4h-3.1c-0.4,0-0.8,0.4-0.8,0.8s0.4,0.8,0.8,0.8h3.1c0.4,0,0.8-0.4,0.8-0.8
			C42.2,24.7,41.9,24.4,41.4,24.4z"/>
	</g>
	<g>
		<path class="st1" d="M25.7,13.4c0.4,0,0.8-0.4,0.8-0.8V9.5c0-0.4-0.4-0.8-0.8-0.8s-0.8,0.4-0.8,0.8v3.1
			C24.9,13.1,25.3,13.4,25.7,13.4z"/>
	</g>
	<g>
		<path class="st1" d="M25.7,36.9c-0.4,0-0.8,0.4-0.8,0.8v3.1c0,0.4,0.4,0.8,0.8,0.8s0.8-0.4,0.8-0.8v-3.1
			C26.5,37.3,26.2,36.9,25.7,36.9z"/>
	</g>
</g>
</svg>
