<?xml version="1.0" encoding="utf-8"?>
<!-- Generator: Adobe Illustrator 24.0.0, SVG Export Plug-In . SVG Version: 6.00 Build 0)  -->
<svg version="1.1" id="Layer_1" xmlns="http://www.w3.org/2000/svg" xmlns:xlink="http://www.w3.org/1999/xlink" x="0px" y="0px"
	 viewBox="0 0 52.8 45.1" style="enable-background:new 0 0 52.8 45.1;" xml:space="preserve">
<g class="st0">
	<path class="st1" d="M51.2,17.6c0.1-1.6-0.4-3.2-1.5-4.5s-2.8-2.2-4.5-2.3H7.6c-1.7,0.1-3.4,1-4.5,2.3S1.4,16,1.6,17.6
		c0.1,1.5,0.9,3,2.1,4s2.6,1.4,4,1.2c1.3-0.1,2.6-0.8,3.5-1.9c0.8-1,1.1-2.2,1-3.5c-0.1-1.1-0.7-2.2-1.7-2.9
		c-0.9-0.7-1.9-0.9-2.9-0.7s-1.9,0.7-2.4,1.5s-0.6,1.6-0.5,2.4c0.1,0.6,0.5,1.2,1.1,1.6c0.6,0.5,1.4,0.6,2,0.3
		c0.5-0.1,0.9-0.5,1.1-0.9c0.3-0.4,0.3-1,0-1.6c-0.3-0.4-0.4-0.4-0.8-0.5H8c-0.2,0-0.4,0-0.6,0.1C7.1,16.9,7,17.3,7,17.6
		c0,0.2,0.1,0.3,0.2,0.4L8,18.8l-1.1-0.3c-0.1,0-0.2-0.1-0.4-0.2c-0.2-0.2-0.5-0.5-0.6-0.9c-0.1-0.5,0-1,0.3-1.4
		c0.4-0.5,1-0.9,1.5-1c0.7-0.1,1.4,0.1,2,0.5c0.6,0.5,1.1,1.2,1.2,2c0.1,0.9-0.1,1.8-0.7,2.5c-0.6,0.8-1.6,1.4-2.6,1.4
		c-1.1,0.1-2.2-0.2-3.1-1c-1-0.8-1.6-1.9-1.7-3.1C2.7,16,3.1,14.7,4,13.7c1-1.1,2.3-1.8,3.7-1.9H45c1.5,0.1,2.8,0.8,3.7,1.9
		c0.9,1,1.3,2.3,1.2,3.6c-0.1,1.2-0.8,2.4-1.7,3.1s-2,1.1-3.1,1s-2-0.7-2.6-1.4c-0.6-0.7-0.8-1.6-0.7-2.5s0.6-1.6,1.2-2.1
		c0.6-0.4,1.3-0.6,2-0.5c0.6,0.1,1.1,0.4,1.5,1c0.2,0.3,0.4,0.8,0.3,1.4c-0.1,0.4-0.3,0.7-0.6,0.9c-0.1,0-0.1,0.1-0.2,0.1
		c-0.1,0-0.1,0.1-0.2,0.1l-1.1,0.3l0.8-0.8c0.1-0.1,0.2-0.3,0.2-0.4c0-0.2-0.1-0.6-0.4-0.8c-0.2-0.2-0.4-0.1-0.6-0.1h-0.1
		c-0.4,0.1-0.6,0.1-0.8,0.5c-0.3,0.5-0.2,1.2,0,1.6s0.6,0.7,1.1,0.9c0.7,0.2,1.4,0.1,2-0.3c0.5-0.4,0.9-1,1.1-1.6
		c0.2-0.8,0-1.6-0.5-2.4c-0.5-0.8-1.4-1.3-2.4-1.5l0,0c-0.1,0-0.2,0-0.3,0s-0.2,0-0.3,0c-0.8,0-1.7,0.3-2.3,0.8
		c-0.9,0.7-1.5,1.7-1.7,2.9c-0.1,1.2,0.2,2.5,1,3.5c0.9,1.1,2.2,1.7,3.6,1.9c1.4,0.1,2.9-0.3,4-1.2C50.3,20.6,51.1,19.1,51.2,17.6z"
		/>
	<path class="st1" d="M38.1,30V17c0-0.4-0.3-0.6-0.6-0.6H15.2c-0.4,0-0.6,0.3-0.6,0.6v26c0,0.2,0.1,0.3,0.2,0.4
		c0.1,0.1,0.3,0.2,0.4,0.2c0.1,0,0.3-0.1,0.4-0.1l5.3-3.6c0.2-0.1,0.2-0.3,0.2-0.5l0.3-16.9c0-0.1,0.1-0.4,0.4-0.6
		c0.5-0.3,1.3-0.3,1.7,0c0.2,0.1,0.4,0.4,0.4,0.6v14.9c0,0.2,0.1,0.3,0.2,0.4c0.1,0.1,0.3,0.2,0.4,0.2s0.2-0.1,0.4-0.1l5.6-3.7
		c0.2-0.1,0.2-0.3,0.2-0.5V22.5c0-0.5,0.5-0.8,1.3-0.8c0.8,0,1.3,0.3,1.3,0.8v9.3c0,0.1,0.1,0.3,0.2,0.4c0.1,0.1,0.3,0.2,0.4,0.2
		c0.1,0,0.2,0,0.2-0.1l0,0l3.7-1.9C37.9,30.4,38.1,30.2,38.1,30z M37,29.6L37,29.6l-2.5,1.2v-8.3c0-1.4-1.3-2-2.5-2s-2.5,0.7-2.5,2
		v10.8l0,0l-4.3,2.9V22.5c0-0.9-0.6-1.4-0.9-1.6c-0.8-0.5-2.2-0.5-3,0c-0.7,0.4-1,0.9-1,1.6L20,39.1l0,0l-4,2.7V17.6h21V29.6z"/>
	<path class="st1" d="M48.7,1.4H4.1C3.7,1.4,3.5,1.7,3.5,2v1.9c0,0.2,0.1,0.3,0.2,0.4L7.4,8c0.1,0.1,0.3,0.2,0.4,0.2H45
		c0.2,0,0.3-0.1,0.4-0.2l3.7-3.7c0.1-0.1,0.2-0.3,0.2-0.4V2.1C49.3,1.7,49.1,1.4,48.7,1.4z M48.1,3.6L44.7,7H8L4.6,3.6V2.7H48
		L48.1,3.6L48.1,3.6L48.1,3.6z"/>
</g>
</svg>
