<?xml version="1.0" encoding="utf-8"?>
<!-- Generator: Adobe Illustrator 23.1.0, SVG Export Plug-In . SVG Version: 6.00 Build 0)  -->
<svg version="1.1" id="Layer_1" xmlns="http://www.w3.org/2000/svg" xmlns:xlink="http://www.w3.org/1999/xlink" x="0px" y="0px"
	 viewBox="0 0 512 512" style="enable-background:new 0 0 512 512;" xml:space="preserve">
<style type="text/css">
	.st0{fill:none;}
</style>
<g>
	<g>
		<path d="M248.3,512c-44.2,0-88.4-5.7-121.2-15.6c-37.3-11.3-57.1-26.9-57.1-45.1c0-3.4,2.8-6.2,6.2-6.2s6.2,2.8,6.2,6.2
			c0,22.9,68.1,48.4,165.9,48.4c46.3,0,89.3-5.7,121-16c28.1-9.1,44.9-21.2,44.9-32.4c0-3.4,2.8-6.2,6.2-6.2s6.2,2.8,6.2,6.2
			c0,18.2-19.7,33.7-57.1,45.1C336.7,506.3,292.5,512,248.3,512z"/>
		<path d="M250.6,451.5C167,451.5,104,432.4,104,407c0-2.4,2-4.4,4.4-4.4s4.4,2,4.4,4.4c0,14.6,49.1,35.7,137.8,35.7
			c88.7,0,137.8-21.1,137.8-35.7c0-2.4,2-4.4,4.4-4.4c2.4,0,4.4,2,4.4,4.4C397.2,432.4,334.2,451.5,250.6,451.5z"/>
	</g>
	<g>
		<path class="st0" d="M238.3,133.2c5.8-3.4,12.1-5.1,18.5-5.1c5.4,0,10.6,1.1,15.5,3.4c9.1-14.4,20.5-27.8,34-39.9
			c-16.4-35.2-40.7-61.8-49.8-71c-9.3,9.4-34.4,36.9-50.8,73.3C218.6,105.9,229.5,119.1,238.3,133.2z"/>
		<path class="st0" d="M265.3,138.7l-1.4,7.5c0.5-1.1,1.1-2.1,1.6-3.1c0.7-1.3,1.4-2.5,2.1-3.7C266.9,139.2,266.1,138.9,265.3,138.7
			z"/>
		<path class="st0" d="M245.5,145.7l1.2-6.4c-1.3,0.5-2.6,1-3.8,1.7c0.4,0.7,0.9,1.4,1.3,2.2C244.6,144,245,144.9,245.5,145.7z"/>
		<path class="st0" d="M246.1,296.4c-3.2-19.6-7.7-61.7,2.3-105.8c-3.6-15-8.5-28.1-14.8-40c-29.8-56.3-89.2-83.5-110-91.6
			c-4.1,23.4-12.5,91.8,17,147.7C150.1,224.6,179.2,268.8,246.1,296.4z"/>
		<path class="st0" d="M276,150.5c-29.6,55.9-21.2,124.2-17,147.7c71.7-27.5,102.3-77,110-91.6c29.6-55.9,21.2-124.3,17-147.7
			C314.4,86.4,283.8,135.9,276,150.5z"/>
		<path class="st0" d="M406.8,196.3c7.1,0,14.4,0.5,21.8,1.5c10.8-22,16.7-42.6,18.9-51.1c-8.1-2.6-25.2-7.4-46.1-8.8
			c-2.2,21.7-7,41.8-14.3,59.7C393.5,196.7,400.1,196.3,406.8,196.3z"/>
		<path class="st0" d="M255.3,137.5l-4,21.2c0.4,1.1,0.9,2.2,1.3,3.3l4.7-24.6c-0.2,0-0.3,0-0.5,0
			C256.3,137.4,255.8,137.5,255.3,137.5z"/>
		<path class="st0" d="M239.8,308.9c-6.1-2.6-14.2-6.3-23.3-11.3c-21.9,10.9-45.4,16.7-67.9,16.7c-24.6,0-47.6-6.7-66.4-19.4
			c-2.4-1.6-3.2-5.1-1.8-7.8c0.9-1.8,2.5-2.8,4.3-2.8c0.9,0,1.8,0.3,2.5,0.8c17.3,11.7,38.6,17.9,61.3,17.9c18.6,0,38-4.2,56.3-12.1
			c-33.2-20.5-59-47-74.8-76.8c-0.2-0.5-0.5-0.9-0.7-1.4c-7.5-1.4-15.4-2.1-23.5-2.1c-40.6,0-77,17.3-90.1,24.4
			c11.8,19.6,48.3,73.7,101.9,90.3c11.7,3.6,24.3,5.5,37.5,5.5C191.1,330.7,223.8,317,239.8,308.9z M42.2,252.7
			c-3.9-5-7.6-10.4-10.9-15.9c-1.6-2.6-1-6.1,1.2-8c0.8-0.7,1.8-1,2.8-1c1.6,0,3.2,0.9,4.1,2.4c3.1,5.2,6.6,10.1,10.2,14.8
			c0.8,1.1,1.3,2.4,1.3,3.8c0,3.1-2.2,5.7-5,5.7C44.5,254.7,43.1,254,42.2,252.7z M74.8,286.5l-2.8-1c-7.9-6.3-15.3-13.3-22.2-21.1
			c-1-1.1-1.5-2.5-1.5-4c0-1.5,0.5-3,1.4-4.1c0.9-1.1,2.2-1.7,3.6-1.7c1.3,0,2.5,0.6,3.5,1.6c6.4,7.2,13.5,13.9,20.9,19.8
			c2.3,1.8,2.8,5.4,1.2,8C78,285.6,76.4,286.5,74.8,286.5z"/>
		<path class="st0" d="M380,213.1c-0.1,0.3-0.3,0.5-0.4,0.8c-28.9,54.8-82.4,83.2-108.5,94.4c16.1,8.2,49.2,22.3,85.8,22.3
			c13.2,0,25.8-1.8,37.5-5.5c53.6-16.6,90.1-70.7,101.9-90.3c-13-7-49.3-24.3-90-24.3C397.2,210.6,388.4,211.4,380,213.1z"/>
		<path class="st0" d="M256,315.9c-8.2,5-50.3,29.1-100.5,29.1c-6.2,0-12.5-0.4-18.9-1.3c10.2,15,54.6,29.8,116.2,29.8
			c66.4,0,105.6-15.9,115.9-29.1c-4.4,0.4-8.4,0.6-12.3,0.6C306.4,345,263.2,320.2,256,315.9z"/>
		<path class="st0" d="M104.9,196.2c5.9,0,11.7,0.3,17.4,1c-7-17.4-11.6-36.7-13.9-57.6c-24.3,0.8-44.9,7.1-53.2,9.9
			c2.9,9.3,9.5,28.7,20.9,49.3C85.8,197.1,95.5,196.2,104.9,196.2z"/>
		<path d="M509,226.4l-0.8-0.5c-1.2-0.7-28.5-18-66.4-25.8c13.7-29.5,19-55.4,19.2-56.5l0.2-0.9l-3.4-7.1l-0.7-0.3
			c-1-0.4-24.1-9.6-54.6-11.7c2-41.5-5.6-74.1-5.9-75.5l-0.2-0.9l-6.6-4.3l-0.8,0.3c-1.5,0.5-37.3,12-72.5,40.1
			c-21.6-45.6-54.6-76.1-56-77.3l-0.6-0.5h-6.6l-0.6,0.5c-1.5,1.3-35.3,32.6-57,79.4c-36.2-29.7-73.5-41.6-75.1-42.1l-0.8-0.3
			l-6.5,4.3l-0.2,0.9c-0.3,1.4-8.2,34.9-5.9,77.3c-34.2,1.3-60.8,12.6-61.9,13l-0.8,0.3l-3.3,7.4l0.2,0.9
			c0.7,2.8,6.9,27.1,21.4,54.8c-34,8.4-58.1,23.6-59.1,24.3L3,226.4l-2,8.5l0.4,0.9c1.7,3.3,43,81.5,112.9,103.2
			c3.5,1.1,7.3,2,11.7,3c3.5,15.6,24.9,25.3,42.6,30.7c23.1,7,53.8,11,84.2,11c29.9,0,60.2-3.9,83.2-10.7
			c17.5-5.2,39-14.6,43.4-29.7c6.4-1,12.4-2.4,18.2-4.2c69.9-21.7,111.2-99.9,112.9-103.2l0.4-0.9L509,226.4z M401.4,137.9
			c20.9,1.4,38.1,6.2,46.1,8.8c-2.2,8.5-8.2,29.1-18.9,51.1c-7.4-1-14.7-1.5-21.8-1.5c-6.7,0-13.3,0.4-19.7,1.3
			C394.4,179.6,399.2,159.6,401.4,137.9z M386,58.9c4.1,23.4,12.5,91.7-17,147.7c-7.7,14.6-38.4,64.1-110,91.6
			c-4.1-23.4-12.5-91.7,17-147.7C283.8,135.9,314.4,86.4,386,58.9z M252.6,162c-0.4-1.1-0.9-2.2-1.3-3.3l4-21.2
			c0.5-0.1,1-0.1,1.5-0.1c0.2,0,0.3,0,0.5,0L252.6,162z M263.9,146.3l1.4-7.5c0.8,0.2,1.6,0.5,2.3,0.7c-0.7,1.2-1.5,2.4-2.1,3.7
			C264.9,144.2,264.4,145.2,263.9,146.3z M256.6,20.6c9,9.2,33.3,35.8,49.8,71c-13.4,12.1-24.9,25.5-34,39.9
			c-4.9-2.3-10.1-3.4-15.5-3.4c-6.5,0-12.7,1.7-18.5,5.1c-8.8-14.2-19.7-27.4-32.5-39.3C222.2,57.5,247.3,30.1,256.6,20.6z
			 M246.7,139.3l-1.2,6.4c-0.4-0.9-0.9-1.7-1.3-2.6c-0.4-0.8-0.8-1.5-1.3-2.2C244.1,140.3,245.4,139.8,246.7,139.3z M123.6,58.9
			c20.8,8.1,80.2,35.3,110,91.6c6.3,11.9,11.1,25,14.8,40c-10,44.1-5.5,86.2-2.3,105.8c-66.9-27.5-96-71.8-105.5-89.8
			C111.1,150.7,119.4,82.4,123.6,58.9z M55.2,149.5c8.2-2.8,28.9-9,53.2-9.9c2.3,20.9,6.9,40.3,13.9,57.6c-5.7-0.7-11.5-1-17.4-1
			c-9.4,0-19.1,0.9-28.8,2.6C64.7,178.1,58.1,158.8,55.2,149.5z M117.6,325.2c-53.5-16.6-90.1-70.7-101.9-90.3
			c13.1-7,49.5-24.4,90.1-24.4c8.1,0,16,0.7,23.5,2.1c0.2,0.5,0.4,0.9,0.7,1.4c15.8,29.8,41.6,56.3,74.8,76.8
			c-18.3,7.9-37.7,12.1-56.3,12.1c-22.8,0-44-6.2-61.3-17.9c-0.8-0.5-1.6-0.8-2.5-0.8c-1.7,0-3.4,1.1-4.3,2.8
			c-1.4,2.7-0.6,6.2,1.8,7.8c18.9,12.7,41.9,19.4,66.4,19.4c22.5,0,46-5.8,67.9-16.7c9.2,5,17.2,8.7,23.3,11.3
			c-16,8-48.7,21.7-84.7,21.7C141.9,330.7,129.3,328.8,117.6,325.2z M252.9,373.5c-61.6,0-106-14.8-116.2-29.8
			c6.3,0.8,12.7,1.3,18.9,1.3c50.1,0,92.3-24.1,100.5-29.1c7.2,4.4,50.4,29.1,100.5,29.1c3.9,0,7.9-0.2,12.3-0.6
			C358.5,357.5,319.4,373.5,252.9,373.5z M394.4,325.2c-11.7,3.6-24.3,5.5-37.5,5.5c-36.7,0-69.7-14.1-85.8-22.3
			c26.1-11.2,79.5-39.7,108.5-94.4c0.1-0.3,0.3-0.5,0.4-0.8c8.4-1.7,17.2-2.6,26.3-2.6c40.7,0,76.9,17.3,90,24.3
			C484.5,254.5,448,308.6,394.4,325.2z"/>
		<path d="M77.6,276.1c-7.4-5.9-14.4-12.6-20.9-19.8c-0.9-1.1-2.2-1.6-3.5-1.6c-1.3,0-2.6,0.6-3.6,1.7c-0.9,1.1-1.4,2.5-1.4,4.1
			c0,1.5,0.5,3,1.5,4c6.8,7.7,14.3,14.8,22.2,21.1l2.8,1c1.6,0,3.2-0.9,4.1-2.5C80.5,281.5,79.9,277.9,77.6,276.1z"/>
		<path d="M50.9,248.9c0-1.4-0.4-2.8-1.3-3.8c-3.6-4.7-7.1-9.7-10.2-14.8c-0.9-1.5-2.5-2.4-4.1-2.4c-1,0-2,0.4-2.8,1
			c-2.2,1.8-2.8,5.4-1.2,8c3.4,5.5,7,10.9,10.9,15.9c0.9,1.2,2.3,1.9,3.7,1.9C48.6,254.7,50.9,252.1,50.9,248.9z"/>
	</g>
</g>
</svg>
