<?xml version="1.0" encoding="utf-8"?>
<!-- Generator: Adobe Illustrator 23.1.0, SVG Export Plug-In . SVG Version: 6.00 Build 0)  -->
<svg version="1.1" id="Layer_1" xmlns="http://www.w3.org/2000/svg" xmlns:xlink="http://www.w3.org/1999/xlink" x="0px" y="0px"
	 viewBox="0 0 512 512" style="enable-background:new 0 0 512 512;" xml:space="preserve">
<g>
	<path d="M177.9,314.7c0-2.3,0-4.6-2.3-6.8c-13.7-16-34.2-46.8-34.2-65c0-4.6-3.4-9.1-9.1-9.1c-4.6,0-9.1,3.4-9.1,9.1
		c0,29.7,34.2,71.9,37.7,76.4c3.4,3.4,9.1,4.6,12.6,1.1C176.8,319.2,177.9,316.9,177.9,314.7z"/>
	<path d="M383.3,234.8c-4.6,0-9.1,3.4-9.1,9.1c0,18.3-20.5,49.1-34.2,65c-1.1,2.3-2.3,4.6-2.3,5.7c0,2.3,1.1,4.6,3.4,5.7
		c3.4,3.4,9.1,2.3,12.6-1.1c3.4-4.6,37.7-46.8,37.7-76.4C391.3,238.2,387.8,234.8,383.3,234.8z"/>
	<path d="M255.5,234.8c-5.7,0-9.1,3.4-9.1,9.1v70.7c0,4.6,4.6,9.1,9.1,9.1s9.1-3.4,9.1-9.1v-70.7
		C265.7,238.2,261.2,234.8,255.5,234.8z"/>
	<path d="M85.5,497.2c8,8,19.4,12.6,31.9,12.6h278.4c24,0,44.5-19.4,44.5-44.5v-178l2.3-1.1c42.2-21.7,68.5-63.9,68.5-111.8
		c0-69.6-55.9-125.5-125.5-125.5c-5.7,0-12.6,1.1-21.7,2.3h-2.3l-1.1-1.1C334.2,19.2,296.6,2,256.6,2S179,19.2,152.8,50l-2.3,3.4
		h-2.3c-8-1.1-14.8-2.3-21.7-2.3C57,51.1,1.1,107,1.1,176.6c0,47.9,26.2,90.1,68.5,111.8l2.3,1.1v178
		C71.8,477.8,76.4,489.2,85.5,497.2z M422.1,466.4c0,14.8-12.6,27.4-27.4,27.4H116.3c-6.8,0-13.7-3.4-19.4-8c-5.7-5.7-8-12.6-8-19.4
		v-49.1h333.2C422.1,417.3,422.1,466.4,422.1,466.4z M19.3,175.5c0-59.3,49.1-108.4,108.4-108.4c2.3,0,3.4,0,5.7,0h6.8l-2.3,4.6
		c-11.4,20.5-18.3,44.5-18.3,68.5c0,4.6,3.4,8,8,8c4.6,0,8-3.4,8-8c0-66.2,53.6-119.8,119.8-119.8s119.8,53.6,119.8,119.8
		c0,4.6,3.4,8,8,8c4.6,0,8-3.4,8-8c0-24-6.8-46.8-18.3-68.5l-2.3-4.6h6.8c2.3,0,3.4,0,5.7,0c59.3,0,108.4,49.1,108.4,108.4
		c0,43.4-25.1,82.1-65,99.3l0,0c0,0-1.1,0-1.1,1.1c-1.1,1.1-2.3,1.1-2.3,2.3c-1.1,1.1-1.1,2.3-1.1,3.4v1.1v117.5H88.9V282.7v-1.1
		c0-1.1-1.1-2.3-1.1-3.4c-1.1-1.1-1.1-2.3-2.3-2.3c0,0-1.1,0-1.1-1.1C44.4,257.6,19.3,218.8,19.3,175.5z"/>
</g>
</svg>
