<svg id="Layer_1" data-name="Layer 1" xmlns="http://www.w3.org/2000/svg" viewBox="0 0 93 79"><title>logo</title><path d="M.0654,78.93517c0-25.29169.04165-50.58356-.06526-75.8748C-.01041.56381.56409-.00865,3.0613.0001q43.4382.15218,86.877,0C92.435-.0086,93.011.563,92.99984,3.06019q-.16313,36.43937,0,72.87961c.01117,2.49682-.56437,3.06845-3.06133,3.06011C59.98105,78.89976,30.02318,78.93517.0654,78.93517Z" fill="none"/><path d="M18.87714,10.05143c0,19.17558-.116,37.09748.08494,55.01584.04774,4.25788-2.53887,3.23406-4.86916,3.42126C11.43585,68.702,9.89444,68.428,9.95349,64.922c.22941-13.62083.12169-27.24792.06363-40.87235-.009-2.10221.20955-3.83412,2.16447-5.14718C14.999,17.01008,16.29994,13.8227,18.87714,10.05143Z" fill="#fff"/><path d="M53.5957,10.048A29.21848,29.21848,0,0,0,24.19824,39.42053c.09705,16.14759,13.6969,29.5932,29.66376,29.32739A29.588,29.588,0,0,0,82.949,39.39264,29.031,29.031,0,0,0,53.5957,10.048ZM71.5495,60.84265c-6.303-5.1463-12.71307-.814-19.06769-1.064-9.083-.35736-16.7785-7.0362-18.97522-16.3144-1.98669-8.39086,2.16846-17.574,9.96741-22.02862A20.5224,20.5224,0,0,1,71.53467,49.2641C68.41968,54.84283,68.41968,54.84283,71.5495,60.84265Z"/></svg>